{
    "asset" : {
        "generator" : "Khronos glTF Blender I/O v1.8.19",
        "version" : "2.0"
    },
    "scene" : 0,
    "scenes" : [
        {
            "name" : "Scene",
            "nodes" : [
                0
            ]
        }
    ],
    "nodes" : [
        {
            "mesh" : 0,
            "name" : "gummy_bear.150_Sphere.004",
            "rotation" : [
                0.7071068286895752,
                0,
                0,
                0.7071067094802856
            ],
            "scale" : [
                0.3309305012226105,
                0.3309305012226105,
                0.3309305012226105
            ],
            "translation" : [
                5.619043350219727,
                14.777876853942871,
                12.512884140014648
            ]
        }
    ],
    "materials" : [
        {
            "doubleSided" : true,
            "name" : "matHook",
            "pbrMetallicRoughness" : {
                "baseColorTexture" : {
                    "index" : 0
                },
                "metallicFactor" : 0,
                "roughnessFactor" : 0.7654792070388794
            }
        }
    ],
    "meshes" : [
        {
            "name" : "gummy_bear.150_Sphere.004",
            "primitives" : [
                {
                    "attributes" : {
                        "POSITION" : 0,
                        "NORMAL" : 1
                    },
                    "indices" : 2,
                    "material" : 0
                }
            ]
        }
    ],
    "textures" : [
        {
            "sampler" : 0,
            "source" : 0
        }
    ],
    "images" : [
        {
            "bufferView" : 3,
            "mimeType" : "image/jpeg",
            "name" : "Plane001DiffuseMap"
        }
    ],
    "accessors" : [
        {
            "bufferView" : 0,
            "componentType" : 5126,
            "count" : 12098,
            "max" : [
                2.1495869159698486,
                2.051054000854492,
                3.071233034133911
            ],
            "min" : [
                -2.119220018386841,
                -1.9854199886322021,
                -3.47530198097229
            ],
            "type" : "VEC3"
        },
        {
            "bufferView" : 1,
            "componentType" : 5126,
            "count" : 12098,
            "type" : "VEC3"
        },
        {
            "bufferView" : 2,
            "componentType" : 5123,
            "count" : 72576,
            "type" : "SCALAR"
        }
    ],
    "bufferViews" : [
        {
            "buffer" : 0,
            "byteLength" : 145176,
            "byteOffset" : 0
        },
        {
            "buffer" : 0,
            "byteLength" : 145176,
            "byteOffset" : 145176
        },
        {
            "buffer" : 0,
            "byteLength" : 145152,
            "byteOffset" : 290352
        },
        {
            "buffer" : 0,
            "byteLength" : 236669,
            "byteOffset" : 435504
        }
    ],
    "samplers" : [
        {
            "magFilter" : 9729,
            "minFilter" : 9987
        }
    ],
    "buffers" : [
        {
            "byteLength" : 672176,
            "uri" : "data:application/octet-stream;base64,"
        }
    ]
}
